<svg xmlns="http://www.w3.org/2000/svg" height="800" width="1200" xml:space="preserve" y="0" x="0" id="Layer_1" version="1.1" viewBox="-39.7404 -36 344.4168 216"><style id="style106" type="text/css">.st0{fill:#fe414d}</style><g id="g146"><path id="path108" d="M204.8 45.1c-2.8 2.2-6.4 3.5-10.3 3.5-9 0-16.3-7.1-16.3-15.8 0-8.7 7.4-15.8 16.4-15.8 3.9 0 7.5 1.3 10.3 3.5l3.5-3.5c-3.7-3.1-8.5-4.9-13.7-4.9-11.7 0-21.2 9.3-21.2 20.7 0 11.4 9.5 20.7 21.2 20.7 5.2 0 10-1.9 13.7-4.9z"/><g id="g114"><path id="path110" d="M142.2 81.9c1.7 0 3.1-1.4 3.1-3.1 0-1.7-1.4-3.1-3.1-3.1-1.7 0-3.1 1.4-3.1 3.1 0 1.7 1.4 3.1 3.1 3.1z" class="st0"/><path id="rect112" class="st0" d="M139.8 87.8h4.9v41.3h-4.9z"/></g><path id="path116" d="M40 32.7c0-11.3-9-20.6-20-20.6-5.9 0-11.4 2.6-15.1 7.1v-7.1H0v56.2h4.9V46.2c3.8 4.6 9.2 7.2 15.1 7.2 11 0 20-9.3 20-20.7zM20 48.5c-8.2 0-14.8-6.7-15.1-15.2v-.6C4.9 24 11.6 17 20 17c8.4 0 15.1 7 15.1 15.7S28.3 48.5 20 48.5z"/><path id="path118" d="M58.1 129.1c5.9 0 11.3-2.6 15.1-7.2v7.2h4.9V87.8h-4.9v7.1c-3.8-4.5-9.2-7.1-15.1-7.1-11 0-20 9.2-20 20.6.1 11.4 9 20.7 20 20.7zM43 108.3c0-8.7 6.8-15.7 15.1-15.7s15.1 7 15.1 15.7v.6c-.3 8.5-7 15.2-15.1 15.2-8.3.1-15.1-7-15.1-15.8z" class="st0"/><path id="path120" d="M130.8 108.3c0-11.3-9-20.6-20-20.6-5.9 0-11.4 2.6-15.1 7.1v-7.1h-4.9V144h4.9v-22.1c3.8 4.6 9.2 7.2 15.1 7.2 11.1 0 20-9.3 20-20.8zm-19.9 15.9c-8.2 0-14.8-6.7-15.1-15.2v-.6c0-8.7 6.8-15.7 15.1-15.7s15.1 7 15.1 15.7-6.8 15.8-15.1 15.8z" class="st0"/><path id="path122" d="M76.4 12.1v24.4c0 6.7-5.3 12.1-12.1 12.1-6.7-.1-12-5.4-12-12.1V12.1h-4.8v24.4c0 9.3 7.5 16.9 16.8 16.9 9.4 0 17-7.6 17-16.9V12.1z"/><path id="path124" d="M110.9 12.1c-5.9 0-11.3 2.6-15.1 7.2V0h-4.9v53.5h4.9v-7.1c3.8 4.5 9.2 7.1 15.1 7.1 11 0 20-9.2 20-20.6-.1-11.5-9-20.8-20-20.8zM126 32.8c0 8.7-6.8 15.7-15.1 15.7s-15.1-7-15.1-15.7v-.6c.3-8.5 7-15.2 15.1-15.2 8.3 0 15.1 7.1 15.1 15.8z"/><path id="path126" d="M161.3 6.2c1.7 0 3.1-1.4 3.1-3.1 0-1.7-1.4-3.1-3.1-3.1-1.7 0-3.1 1.4-3.1 3.1 0 1.7 1.4 3.1 3.1 3.1z"/><path id="rect128" d="M158.9 12.1h4.9v41.3h-4.9z"/><path id="path130" d="M222.2 6.2c1.7 0 3.1-1.4 3.1-3.1 0-1.7-1.4-3.1-3.1-3.1-1.7 0-3.1 1.4-3.1 3.1-.1 1.7 1.3 3.1 3.1 3.1z"/><path id="rect132" d="M219.7 12.1h4.9v41.3h-4.9z"/><path id="path134" d="M221.8 87.8c-4.6 0-9 1.9-12.1 5.2v-5.2H205v41.3h4.7v-24.5c.2-6.7 5.6-12.1 12.1-12.1 6.7 0 12.1 5.4 12.1 12.1v24.5h4.8v-24.5c-.1-9.3-7.7-16.8-16.9-16.8z" class="st0"/><path id="path136" d="M263.7 124.4l-.5.1c-.5.1-1.2.3-2.4.3-2 0-2.8-1.2-2.8-4.1V92.5h5.7v-4.7H258V73.9h-5v13.9h-5.8v4.7h5.8v28.3c0 3.1.6 5.1 1.7 6.4 1.1 1.3 2.8 1.9 4.9 1.9 1.6 0 3-.2 3.9-.6l.3-.1z" class="st0"/><path id="path138" d="M187.8 117.2c-2.7 4.4-7.5 7.1-12.7 7.1-8 0-14.7-6.4-15.3-14.7h32.8c1.3 0 2.4-1 2.4-2.2v-.4c-.9-10.9-9.4-19.2-19.9-19.2-11.1 0-20.1 9.3-20.1 20.7 0 11.3 9 20.6 20.1 20.6 6.8 0 13-3.5 16.7-9.3zm-12.7-24.6c7.1 0 13.2 5.2 14.7 12.3h-29.6c1.6-7.3 7.7-12.3 14.9-12.3z" class="st0"/><path id="path140" d="M27 109.2s-1.3-1-2.6-1.6c-1.4-.6-3.3-1.2-7.4-2.2-.6-.1-1.1-.2-1.6-.4-2.7-.7-4.8-1.6-6.4-2.7-1.5-1.3-2-2.4-2-3.8.1-1.5 1-3 2.6-4.2 1.8-1.4 4.5-2 7.5-1.9 3.4.1 6 1.9 8.8 3.9l.3.2 3.5-3.3c-.4-.4-.5-.5-1.7-1.3-2.8-1.9-6.2-3.9-10.8-4.1-4-.2-7.5.6-10.3 2.4-3 2-4.9 4.9-4.9 8 0 2.3.4 4.5 2.8 6.7 2.8 2.7 7.1 4.1 11 4.8 3.4.7 6.5 1.9 8.1 3.2 1.9 1.7 2.5 3 2.5 4.8-.1 1.7-1.2 3.3-3.1 4.5-1.9 1.4-4.7 2.2-7.5 2.1-3.8-.2-7.7-1.8-11.6-4.9l-.3-.2-3.5 3.2.3.3c4.6 3.9 9.5 6.1 14.8 6.4 3.9.2 7.3-.8 10.5-2.9 3.2-2.2 5-5.1 5.2-8.3.3-3.3-1.4-6.7-4.2-8.7z" class="st0"/><path id="path142" d="M260.7 33.5s-1.3-1-2.6-1.6c-1.4-.6-3.3-1.2-7.4-2.2-.6-.1-1.1-.2-1.6-.4-2.7-.7-4.8-1.6-6.4-2.7-1.5-1.3-2.1-2.4-2-3.8.1-1.5 1-3 2.6-4.2 1.8-1.4 4.5-2 7.5-1.9 3.4.1 6 1.9 8.8 3.9l.3.2 3.5-3.3c-.4-.4-.5-.5-1.7-1.3-2.8-1.9-6.2-3.9-10.8-4.1-4-.2-7.5.6-10.3 2.4-3 2-4.9 4.9-4.9 8 0 2.3.4 4.5 2.8 6.7 2.8 2.7 7.1 4.1 11 4.8 3.4.7 6.5 1.9 8.1 3.2 1.9 1.7 2.5 3 2.5 4.8-.1 1.7-1.2 3.3-3.1 4.5-1.9 1.4-4.7 2.2-7.5 2.1-3.8-.2-7.7-1.8-11.6-4.9l-.3-.2-3.5 3.2.3.3c4.6 3.9 9.5 6.1 14.8 6.4 3.9.2 7.3-.8 10.5-2.9 3.2-2.2 5-5.1 5.2-8.3.3-3.3-1.3-6.7-4.2-8.7z"/><path id="rect144" d="M139.8 0h4.9v53.4h-4.9z"/></g></svg>